<?xml version="1.0" standalone="no"?>
<!DOCTYPE svg PUBLIC "-//W3C//DTD SVG 20010904//EN"
 "http://www.w3.org/TR/2001/REC-SVG-20010904/DTD/svg10.dtd">
<svg version="1.0" xmlns="http://www.w3.org/2000/svg"
 width="407.000000pt" height="407.000000pt" viewBox="0 0 407.000000 407.000000"
 preserveAspectRatio="xMidYMid meet">
<metadata>
Created by potrace 1.11, written by Peter Selinger 2001-2013
</metadata>
<g transform="translate(0.000000,407.000000) scale(0.100000,-0.100000)"
fill="#000000" stroke="none">
<path d="M2983 3840 c-55 -33 -60 -55 -66 -275 -3 -110 -13 -249 -22 -310 -34
-229 -48 -822 -26 -1090 7 -88 15 -274 18 -414 l5 -253 -69 38 c-204 112 -209
114 -285 114 -40 0 -109 5 -155 12 -164 24 -498 -40 -683 -130 -84 -41 -109
-60 -218 -166 -167 -163 -187 -205 -198 -421 -12 -222 23 -340 131 -444 102
-98 302 -183 540 -231 61 -12 128 -26 150 -32 22 -5 162 -14 310 -20 l270 -11
95 28 c176 51 268 106 321 191 27 44 79 206 79 248 1 17 7 58 15 91 19 76 19
173 1 267 -10 53 -16 198 -21 499 -4 261 -12 466 -20 534 -8 61 -17 189 -20
285 -7 222 7 708 22 734 10 18 14 16 44 -29 91 -130 143 -177 264 -237 97 -48
129 -77 203 -189 97 -148 110 -172 117 -222 14 -91 81 -153 158 -143 53 6 86
31 108 82 17 38 19 53 11 112 -13 91 -41 145 -181 356 -82 122 -144 179 -269
244 -54 28 -107 61 -118 74 -68 77 -140 209 -220 406 -18 45 -40 92 -48 105
-8 12 -20 45 -27 72 -24 102 -67 145 -144 145 -22 0 -54 -9 -72 -20z"/>
<path d="M502 1720 c-31 -13 -55 -71 -43 -104 12 -31 48 -56 82 -56 15 0 45
-6 67 -14 22 -8 84 -20 139 -26 108 -12 179 -30 264 -66 72 -30 104 -30 134 1
29 28 33 79 9 113 -15 22 -130 82 -157 82 -8 0 -30 6 -48 14 -19 7 -81 18
-139 24 -58 6 -125 18 -149 27 -48 17 -123 19 -159 5z"/>
<path d="M285 1453 c-28 -7 -62 -41 -69 -69 -8 -32 18 -82 50 -94 14 -6 43
-10 66 -10 22 0 63 -6 91 -14 29 -7 88 -21 132 -30 44 -10 100 -22 125 -28 25
-6 63 -14 85 -18 22 -4 60 -14 85 -23 47 -18 87 -21 115 -11 19 8 45 55 45 83
0 52 -101 113 -220 132 -25 4 -72 12 -106 17 -33 6 -83 17 -110 26 -121 38
-231 53 -289 39z"/>
<path d="M31 972 c-39 -39 -40 -74 -3 -111 27 -28 28 -28 212 -35 102 -4 205
-11 230 -16 25 -5 98 -9 163 -10 65 0 127 -5 138 -11 11 -5 63 -17 115 -24
112 -17 156 -6 174 41 27 71 -20 119 -129 129 -36 3 -82 13 -101 22 -35 17
-84 20 -582 39 l-186 7 -31 -31z"/>
<path d="M895 570 c-16 -4 -130 -8 -252 -9 l-222 -1 -83 -31 c-90 -34 -195
-59 -244 -59 -40 0 -77 -39 -77 -80 0 -42 33 -83 76 -94 43 -11 166 16 290 64
78 30 78 30 291 30 247 0 311 9 344 46 40 45 25 106 -33 130 -37 15 -45 16
-90 4z"/>
</g>
</svg>
